<?xml version="1.0" encoding="UTF-8"?><svg version="1.1" viewBox="0 0 142.9 156.71" xmlns="http://www.w3.org/2000/svg"><defs><style>.cls-1{fill:#ff7b7b;}.cls-2{fill:#e26d6d;}.cls-3{fill:#f4f6f9;}.cls-4{fill:#d16969;}</style></defs><circle class="cls-1" cx="73.797" cy="79.77" r="51.54" fill="#ff7b7b"/><path class="cls-2" d="m93.767 127.16a51.56 51.56 0 0 1-43.78-93.28 55.5 55.5 0 0 0 40.55 93.38c1.12-0.01 2.17-0.04 3.23-0.1z" fill="#e26d6d"/><circle class="cls-2" cx="88.157" cy="48" r="4.88" fill="#e26d6d"/><circle class="cls-3" cx="44.027" cy="51.07" r="4.88" fill="#f4f6f9"/><circle class="cls-3" cx="61.457" cy="48" r="3.66" fill="#f4f6f9"/><circle class="cls-2" cx="68.147" cy="74.28" r="8.17" fill="#e26d6d"/><circle class="cls-3" cx="40.707" cy="90.53" r="8.17" fill="#f4f6f9"/><circle class="cls-2" cx="78.597" cy="103.36" r="8.17" fill="#e26d6d"/><circle class="cls-4" cx="104.63" cy="98.48" r="4.88" fill="#d16969"/><circle class="cls-4" cx="53.787" cy="113.98" r="3.66" fill="#d16969"/><circle class="cls-4" cx="42.157" cy="72.6" r="3.66" fill="#d16969"/><circle class="cls-4" cx="99.747" cy="69.02" r="4.88" fill="#d16969"/><path class="cls-1" d="m68.147 28.54c4.12-8.73 3.63-24 3.63-24h4.3s0.53 16.91 3.73 24" fill="#ff7b7b"/><path class="cls-2" d="m76.137 5.88h-0.07a10.36 10.36 0 0 1-4.28-0.67v-0.68h4.3s0.02 0.78 0.05 1.35z" fill="#e26d6d"/><ellipse class="cls-1" cx="73.977" cy="2.46" rx="4.93" ry="2.46" fill="#ff7b7b"/><ellipse class="cls-3" transform="rotate(-13.18)" cx="69.208" cy="17.546" rx=".94" ry=".42" fill="#f4f6f9"/><path class="cls-1" d="m85.847 30.58c5.25-5.23 8.86-16.38 8.86-16.38l3.11 1.12s-4 12.35-3.55 18.32" fill="#ff7b7b"/><path class="cls-2" d="m97.507 16.3a8.08 8.08 0 0 1-2.91-1.6l0.16-0.49 3.11 1.12s-0.21 0.55-0.36 0.97z" fill="#e26d6d"/><ellipse class="cls-1" transform="rotate(-70.19)" cx="20.355" cy="95.603" rx="1.89" ry="3.78" fill="#ff7b7b"/><ellipse class="cls-3" transform="rotate(-83.37)" cx="-.66075" cy="95.978" rx=".32" ry=".72" fill="#f4f6f9"/><path class="cls-1" d="m96.947 35.41c5.44-3.33 10.71-11.95 10.71-11.95l2.37 1.56s-5.84 9.54-6.64 14.64" fill="#ff7b7b"/><path class="cls-2" d="m109.58 25.78a6.82 6.82 0 0 1-2.12-1.93l0.24-0.37 2.37 1.56z" fill="#e26d6d"/><ellipse class="cls-1" transform="rotate(-56.75)" cx="40.782" cy="104.36" rx="1.63" ry="3.26" fill="#ff7b7b"/><ellipse class="cls-3" transform="rotate(-69.93)" cx="17.059" cy="109.39" rx=".28" ry=".62" fill="#f4f6f9"/><path class="cls-1" d="m53.167 34.18c0.73-6.34-2.8-15.8-2.8-15.8l2.69-0.91s3.91 10.49 7.43 14.27" fill="#ff7b7b"/><path class="cls-2" d="m53.377 18.31a6.77 6.77 0 0 1-2.82 0.48l-0.15-0.42 2.69-0.91z" fill="#e26d6d"/><ellipse class="cls-1" transform="rotate(-18.66)" cx="43.289" cy="32.145" rx="3.26" ry="1.63" fill="#ff7b7b"/><ellipse class="cls-3" transform="rotate(-31.84)" cx="33.327" cy="40.02" rx=".62" ry=".28" fill="#f4f6f9"/><path class="cls-1" d="m122.71 69.21c6 2.06 16 0.59 16 0.59l0.32 2.83s-11.07 1.61-15.51 4.25" fill="#ff7b7b"/><path class="cls-2" d="m138.19 72.77v-0.05a6.81 6.81 0 0 1 0.13-2.86l0.44-0.06 0.32 2.83z" fill="#e26d6d"/><ellipse class="cls-1" transform="rotate(-6.49)" cx="131.33" cy="86.5" rx="1.63" ry="3.26" fill="#ff7b7b"/><ellipse class="cls-3" transform="rotate(-19.67)" cx="109.3" cy="112.67" rx=".28" ry=".62" fill="#f4f6f9"/><path class="cls-1" d="m123.84 79.88c5.47 3.3 15.54 4 15.54 4l-0.29 2.83s-11.16-0.78-16.06 0.85" fill="#ff7b7b"/><path class="cls-2" d="m138.2 86.67a6.68 6.68 0 0 1 0.73-2.77h0.44l-0.29 2.83z" fill="#e26d6d"/><ellipse class="cls-1" transform="rotate(-84.17)" cx="-70.761" cy="148.55" rx="3.26" ry="1.63" fill="#ff7b7b"/><ellipse class="cls-3" transform="rotate(-7.4809)" cx="129.76" cy="100.67" rx=".27958" ry=".61907" fill="#f4f6f9" stroke-width=".9985"/><path class="cls-1" d="m119.34 100.51c3.62 5.26 12.51 10.05 12.51 10.05l-1.43 2.46s-9.84-5.32-15-5.85" fill="#ff7b7b"/><path class="cls-2" d="m129.66 112.6a6.87 6.87 0 0 1 1.81-2.23l0.39 0.22-1.43 2.46z" fill="#e26d6d"/><ellipse class="cls-1" transform="rotate(-59.83)" cx="-30.761" cy="170.92" rx="3.26" ry="1.63" fill="#ff7b7b"/><ellipse class="cls-3" transform="rotate(-73.01)" cx="-67.418" cy="160.53" rx=".62" ry=".28" fill="#f4f6f9"/><path class="cls-1" d="m119.2 57.32c7.38 0.65 18.24-3.77 18.24-3.77l1.15 3.1s-12 4.88-16.32 9.08" fill="#ff7b7b"/><path class="cls-2" d="m137.66 57.05a7.83 7.83 0 0 1-0.65-3.26l0.48-0.19 1.15 3.1z" fill="#e26d6d"/><ellipse class="cls-1" transform="rotate(-20.27)" cx="111.99" cy="99.536" rx="1.89" ry="3.78" fill="#ff7b7b"/><ellipse class="cls-3" transform="rotate(-33.45)" cx="87.663" cy="120.7" rx=".32" ry=".72" fill="#f4f6f9"/><path class="cls-1" d="m123.22 90.88c5.33 5.15 16.55 8.55 16.55 8.55l-1.06 3.13s-12.42-3.78-18.39-3.2" fill="#ff7b7b"/><path class="cls-2" d="m137.72 102.24a8 8 0 0 1 1.55-2.95l0.49 0.16-1.06 3.13z" fill="#e26d6d"/><ellipse class="cls-1" transform="rotate(-71.3)" cx="-51.053" cy="165.87" rx="3.78" ry="1.89" fill="#ff7b7b"/><ellipse class="cls-3" transform="rotate(-84.48)" cx="-85.775" cy="151.18" rx=".72" ry=".32" fill="#f4f6f9"/><path class="cls-1" d="m103.66 120.69c0.62 7.38 6.81 17.34 6.81 17.34l-2.86 1.65s-6.85-11-11.72-14.53" fill="#ff7b7b"/><path class="cls-2" d="m107.05 138.81a8 8 0 0 1 3.1-1.2l0.27 0.45-2.86 1.65z" fill="#e26d6d"/><ellipse class="cls-1" transform="rotate(-30.06)" cx="24.766" cy="176.4" rx="3.78" ry="1.89" fill="#ff7b7b"/><ellipse class="cls-3" transform="rotate(-43.24)" cx="-14.35" cy="178.71" rx=".72" ry=".32" fill="#f4f6f9"/><path class="cls-1" d="m108.4 41.57c9.26-2.69 20.36-13.19 20.36-13.19l2.86 3.22s-12.31 11.6-15.51 18.72" fill="#ff7b7b"/><path class="cls-2" d="m130.66 32.54a10.33 10.33 0 0 1-2.33-3.65l0.49-0.46 2.86 3.22z" fill="#e26d6d"/><ellipse class="cls-1" transform="rotate(-41.54)" cx="79.656" cy="108.82" rx="2.46" ry="4.93" fill="#ff7b7b"/><ellipse class="cls-3" transform="rotate(-54.72)" cx="54.479" cy="121.84" rx=".42" ry=".94" fill="#f4f6f9"/><path class="cls-1" d="m116.91 108.03c4.1 8.74 16.18 18.07 16.18 18.07l-2.74 3.32s-13.37-10.36-20.9-12.42" fill="#ff7b7b"/><path class="cls-2" d="m129.28 128.61v-0.05a10.19 10.19 0 0 1 3.24-2.87l0.53 0.41-2.74 3.32z" fill="#e26d6d"/><ellipse class="cls-1" transform="rotate(-50.46)" cx="-14.707" cy="184.98" rx="4.93" ry="2.46" fill="#ff7b7b"/><ellipse class="cls-3" transform="rotate(-63.63)" cx="-54.248" cy="178.52" rx=".94" ry=".42" fill="#f4f6f9"/><path class="cls-2" d="m64.987 130.56c-6.39 7.24-10.16 22-10.16 22l-4.13-1.2s4.19-16.38 3.09-24.11" fill="#e26d6d"/><path class="cls-4" d="m51.017 150.08h0.06a10.34 10.34 0 0 1 3.93 1.84l-0.18 0.65-4.13-1.2z" fill="#d16969"/><ellipse class="cls-2" transform="rotate(-73.86)" cx="-133.42" cy="92.878" rx="2.46" ry="4.93" fill="#e26d6d"/><ellipse class="cls-3" transform="rotate(-87.04)" cx="-152.79" cy="62.28" rx=".42" ry=".94" fill="#f4f6f9"/><path class="cls-2" d="m29.197 105.63c-9.64-0.26-23.4 6.35-23.4 6.35l-1.74-3.93s15.25-7.31 20.47-13.11" fill="#e26d6d"/><path class="cls-4" d="m5.2669 107.45v0.06a10.4 10.4 0 0 1 1.11 4.19l-0.61 0.28-1.74-3.93z" fill="#d16969"/><ellipse class="cls-2" transform="rotate(-23.81)" cx="-41.982" cy="102.58" rx="2.46" ry="4.93" fill="#e26d6d"/><ellipse class="cls-3" transform="rotate(-36.98)" cx="-66.009" cy="92.602" rx=".42" ry=".94" fill="#f4f6f9"/><path class="cls-2" d="m27.577 56.94c-5.13-8.17-18.25-16-18.25-16l2.33-3.59s14.53 8.66 22.26 9.79" fill="#e26d6d"/><path class="cls-4" d="m12.807 38.02v0.06a10.19 10.19 0 0 1-2.88 3.24l-0.57-0.35 2.3-3.62z" fill="#d16969"/><ellipse class="cls-2" transform="rotate(-57.42)" cx="-27.291" cy="27.825" rx="4.93" ry="2.46" fill="#e26d6d"/><ellipse class="cls-3" transform="rotate(-70.6)" cx="-35.178" cy="19.144" rx=".94" ry=".42" fill="#f4f6f9"/><path class="cls-2" d="m39.657 43.07c-1.68-7.26-9.27-16.27-9.27-16.27l2.6-2s8.41 10 13.76 12.76" fill="#e26d6d"/><path class="cls-4" d="m33.707 25.53a8 8 0 0 1-2.91 1.63l-0.33-0.4 2.6-2z" fill="#d16969"/><ellipse class="cls-2" transform="rotate(-38.3)" cx="8.9553" cy="38.276" rx="3.8" ry="1.9" fill="#e26d6d"/><ellipse class="cls-3" transform="rotate(-51.48)" cx="-1.7588" cy="37.982" rx=".73" ry=".32" fill="#f4f6f9"/><path class="cls-2" d="m24.657 89.3c-7-2.41-18.71-0.73-18.71-0.73l-0.37-3.29s12.88-1.86 18.08-4.93" fill="#e26d6d"/><path class="cls-4" d="m6.5669 85.12v0.05a7.87 7.87 0 0 1-0.15 3.34l-0.51 0.06-0.37-3.29z" fill="#d16969"/><ellipse class="cls-2" transform="rotate(-6.38)" cx="-5.5788" cy="86.974" rx="1.9" ry="3.8" fill="#e26d6d"/><ellipse class="cls-3" transform="rotate(-19.55)" cx="-26.608" cy="85.187" rx=".32" ry=".73" fill="#f4f6f9"/><path class="cls-2" d="m50.187 123.96c-6.32 3.95-12.36 14.06-12.36 14.06l-2.79-1.79s6.71-11.2 7.59-17.16" fill="#e26d6d"/><path class="cls-4" d="m35.557 135.33a7.89 7.89 0 0 1 2.5 2.22l-0.27 0.44-2.79-1.79z" fill="#d16969"/><ellipse class="cls-2" transform="rotate(-57.265)" cx="-97.568" cy="104.34" rx="1.8973" ry="3.7947" fill="#e26d6d" stroke-width=".9986"/><ellipse class="cls-3" transform="rotate(-70.47)" cx="-119.96" cy="81.529" rx=".32" ry=".73" fill="#f4f6f9"/><path class="cls-2" d="m86.657 127.71c-1.35 5.85 1 15.05 1 15.05l-2.62 0.57s-2.55-10.2-5.44-14.1" fill="#e26d6d"/><path class="cls-4" d="m84.777 142.52a6.34 6.34 0 0 1 2.69-0.16l0.1 0.41-2.62 0.57s-0.07-0.46-0.17-0.82z" fill="#d16969"/><ellipse class="cls-2" transform="rotate(-12.29)" cx="53.811" cy="159.45" rx="3.06" ry="1.53" fill="#e26d6d"/><ellipse class="cls-3" transform="rotate(-25.47)" cx="17.472" cy="168.59" rx=".59" ry=".26" fill="#f4f6f9"/><path class="cls-2" d="m78.507 129.65c-3.08 6.78-2.54 18.55-2.54 18.55l-3.32 0.05s-0.59-13-3.14-18.5" fill="#e26d6d"/><path class="cls-4" d="m72.587 147.21a7.86 7.86 0 0 1 3.31 0.47v0.52l-3.32 0.05s0.08-0.58 0.01-1.04z" fill="#d16969"/><ellipse class="cls-2" transform="rotate(-.81)" cx="72.17" cy="150.87" rx="3.8" ry="1.9" fill="#e26d6d"/><ellipse class="cls-3" transform="rotate(-13.99)" cx="37.648" cy="164.67" rx=".73" ry=".32" fill="#f4f6f9"/><path class="cls-2" d="m23.357 69.68c-4.78-3.55-14.08-5.09-14.08-5.09l0.52-2.6s10.3 1.72 15 0.63" fill="#e26d6d"/><path class="cls-4" d="m10.657 62.11a6.13 6.13 0 0 1-0.92 2.51s-0.41-0.07-0.41-0.07l0.52-2.6z" fill="#d16969"/><ellipse class="cls-2" transform="rotate(-78.73)" cx="-60.169" cy="20.416" rx="3.04" ry="1.52" fill="#e26d6d"/><ellipse class="cls-3" transform="rotate(-1.91)" cx="5.125" cy="64.645" rx=".26" ry=".58" fill="#f4f6f9"/><path class="cls-2" d="m40.247 116.03c-6.1 2-13.28 9.12-13.28 9.12l-2-2.09s8-7.92 10-12.7" fill="#e26d6d"/><path class="cls-4" d="m25.657 122.42a6.82 6.82 0 0 1 1.63 2.46l-0.32 0.32-2-2.09s0.41-0.4 0.69-0.69z" fill="#d16969"/><ellipse class="cls-2" transform="rotate(-43.09)" cx="-67.196" cy="108.36" rx="1.64" ry="3.27" fill="#e26d6d"/><ellipse class="cls-3" transform="rotate(-56.27)" cx="-91.265" cy="91.686" rx=".28" ry=".62" fill="#f4f6f9"/></svg>
